<?xml version="1.0" encoding="UTF-8"?>
<svg id="Layer_1" data-name="Layer 1" xmlns="http://www.w3.org/2000/svg" viewBox="0 0 232.51 233.05">
  <defs>
    <style>
      .cls-1 {
        fill: #232424;
      }

      .cls-2 {
        fill: #e7b844;
      }

      .cls-3 {
        fill: #faf5ea;
      }
    </style>
  </defs>
  <path class="cls-1" d="M55.35,174.48c-.39-10.52-.79-21.04-1.15-31.56-.04-1.04-.56-1.74-1.19-2.45-4.7-5.32-8.92-11.01-12.69-17.01-5.38-8.56-9.37-17.74-12.12-27.49-1.15-4.07-2.37-8.18-2.8-12.3-.64-6.13-.95-12.32-.33-18.55,1.2-11.96,5.15-22.75,13.13-31.8,5.15-5.84,11.46-10.24,18.67-13.34,12.71-5.46,25.98-6.96,39.63-5.8,7.4,.63,14.68,2.05,21.56,4.89,10.95,4.52,19.75,11.63,25.73,22.04,2.81,4.88,4.94,10.01,5.93,15.53,1.13,6.3,2.28,12.69,1.24,19.09-.95,5.85,1.61,10.13,5.12,14.27,3.23,3.81,6.78,7.35,9.66,11.46,2.28,3.25,2.4,6.8,.37,9.09-1.73,1.95-3.8,3.39-6.18,4.4-1.04,.44-2.01,1.08-3.23,1.11-.9,.02-.83,.78-.76,1.42,.36,3.23,.3,6.45-.02,9.67-.82,8.2-2.63,16.18-6.18,23.62-2.32,4.86-5.36,9.3-10.5,11.8-1.71,.83-3.5,1.01-5.32,1.03-4.82,.06-9.57-.55-14.15-2.08-.99-.33-1.32-.27-1.53,.85-.53,2.76-1.22,5.48-1.86,8.22-.11,.46-.22,.92-.39,1.35-.43,1.05-1.07,1.81-2.37,1.51-1.35-.32-1.71-1.29-1.53-2.5,.27-1.8,.64-3.59,.98-5.38,.49-2.56,.98-5.12,1.48-7.67,.52-2.65,2.09-3.28,4.21-1.7,1.01,.76,2.12,1.29,3.36,1.6,3.71,.92,7.45,1.43,11.28,1.52,3.53,.08,6.25-1.43,8.39-4.05,3.49-4.26,5.65-9.24,7.12-14.49,1.23-4.41,2.17-8.9,2.63-13.48,.36-3.59,.23-7.17-.14-10.76-.36-3.46-.03-3.84,3.32-4.48,2.78-.53,5.17-1.87,7.31-3.69,1.18-1,1.53-2.08,.65-3.55-1.11-1.84-2.47-3.48-3.84-5.11-3.38-4.02-7.07-7.78-9.95-12.23-1.99-3.07-2.95-6.27-2.41-9.9,1.58-10.73-.24-21.02-4.56-30.81-2.74-6.19-6.91-11.46-12.27-15.75-3.31-2.66-6.83-4.94-10.65-6.76-5.21-2.47-10.7-4.07-16.39-4.97-7.6-1.19-15.25-1.58-22.91-.73-12.12,1.34-23.47,4.89-33.12,12.63-6.82,5.48-11.41,12.61-14.33,20.84-3.17,8.93-3.69,18.12-2.8,27.45,1.32,13.91,5.83,26.76,12.81,38.84,4.11,7.12,9,13.64,14.43,19.78,1.2,1.36,1.85,2.79,1.88,4.63,.15,9.64,.85,19.26,.91,28.91,0,.46,.15,.92,.23,1.38-1.19,1.27-2.73,1.51-4.37,1.46Z"/>
  <path class="cls-2" d="M55.35,174.48c1.64,.06,3.17-.18,4.37-1.46,1.07,1.06,1.33,2.36,1.32,3.82-.03,6.1-.01,12.2,0,18.3,0,.78-.01,1.57,.1,2.34,.34,2.23,1.17,3.21,3.42,3.32,3.69,.19,7.4,.15,11.1,.12,2.29-.02,4.58,.2,6.87-.15,.85-.13,1.28-.41,1.47-1.28,.84-3.89,2.99-7.15,5.3-10.27,.95-1.28,2.64-1.83,4.05-2.43,1.04-.44,2.1,.74,2.82,1.62,.83,1.01,1.76,1.92,2.59,2.91,1.95,2.32,1.97,4.9,.85,7.6-1.37,3.3,13.81,2.43,15.55,1.86,.95-.31,1.52-.7,1.63-1.77,.15-1.5,1.11-2.8,1.24-4.34,.04-.53,.54-.99,.99-1.14,1.46-.49,2.9-1.12,4.49-1.01,1.1,.08,.83,.95,.7,1.54-.31,1.42-.65,2.85-1.14,4.21-.48,1.35,.16,1.97,1.26,2.31,.73,.23,1.53,.33,2.31,.33,5.06,.03,10.11,0,15.17,.01,1.08,0,1.85-.38,2.47-1.31,1.48-2.2,3.05-4.33,4.59-6.49,1.78-2.5,4.16-3.72,7.15-2.72,2.28,.77,3.46,2.87,4.51,4.91,.88,1.7,1.62,3.47,3.11,4.77,.5,.43,1,.79,1.64,.8,4.31,.08,8.62,.63,12.94,.07,1.53-.2,2.73-.54,2.66-2.5-.03-.91,.38-1.82,.57-2.74,.1-.51,.32-.88,.88-.94,1.5-.17,3-.33,4.49-.51,.65-.08,.77,.2,.75,.82-.04,.97-.57,1.76-.79,2.66-.56,2.32-.19,2.85,2.14,2.94,.52,.02,1.04-.02,1.56,.01,1.55,.1,2.49-.55,2.7-2.14,.05-.41,.13-.82,.22-1.23,.5-2.09,4.08-3.78,6.04-2.88,.58,.26,.38,.65,.28,1.04-.29,1.21-.58,2.41-.87,3.62-.25,1.04,.24,1.7,1.22,1.75,1.6,.08,3.22,.27,4.82-.17,.97-.26,1.35-.81,1.33-1.8-.04-1.44-.53-2.75-1.07-4.05-1.01-2.44-.77-3.13,1.49-4.45,.36-.21,.7-.45,1.01-.72,1.3-1.14,1.64-1.1,2.29,.48,1.39,3.42,2.32,6.95,1.27,10.62-.73,2.53-2.23,4.44-4.95,5.3-3.52,1.12-6.97,1-10.44-.1-.66-.21-1.37-.4-1.99-.08-3.48,1.79-6.82,.42-10.15-.45-.96-.25-1.67-.29-2.63,.15-1.54,.7-3.24,1.09-4.97,1.11-3.18,.04-6.36-.05-9.54,.04-1.6,.04-3.11-.19-4.52-.89-.96-.47-1.71-.3-2.43,.33-2.08,1.8-4.32,1.37-6.58,.49-.73-.28-1.41-.68-2.14-.94-1.72-.6-3.34-.58-5.12,.17-3.92,1.64-8.42,1.25-12.55,1.03-4.41-.24-8.47-.1-12.72-1.56-.79-.27-1.46-.29-2.24,.05-5.15,2.28-10.9,.87-16.32,1.43-1.34,.14-1.54,.8-1.25,1.9,.99,3.67-1.06,6.89-4.8,7.55-2.89,.51-5.65,.18-8.06-1.54-2.19-1.57-3.88-3.59-4.19-6.42-.1-.96-.47-1.32-1.45-1.41-5.26-.5-10.52-.13-15.78-.19-2.24-.03-4.49,.13-6.62-.79-2.7-1.16-4.1-3.29-4.4-6.12-.5-4.83-.24-9.68-.28-14.52-.02-2.66-.08-5.32-.08-7.97,0-.97-.21-1.97,.32-2.88Zm99.83,27.42c.93,.01,1.87-.18,2.34-.97,.43-.73-.11-1.49-.49-2.17-.25-.45-.53-.89-.83-1.31-.57-.78-1.09-1.79-2.22-1.69-1.28,.12-2.12,1.06-2.63,2.16-.27,.59-.78,1.31-.09,2.01,1.09,1.1,2.35,1.84,3.92,1.97Zm-60.95-5.4c.07-.91-.03-1.84-.42-2.71-.63-1.38-1.37-1.45-2.2-.22-1.34,1.96-1.94,4.23-2.53,6.48-.2,.75,.09,1.12,1.01,1.03,2.32-.21,4.42-2.35,4.15-4.59Zm-.09,14.78c.67-.02,1.49,.12,1.82-.58,.37-.77-.05-1.52-.56-2.15-1.18-1.46-4.1-2.24-5.87-1.67-.62,.2-.47,.49-.39,.93,.39,2.18,2.18,3.44,5,3.47Z"/>
  <path class="cls-1" d="M64.69,48.03c-.51,.55-.42,1.13-.11,1.73,2.56,5,5.11,10.01,7.67,15.01,.76,1.48,1.51,2.97,2.25,4.46,.35,.69,.59,1.65,1.55,1.48,1.11-.19,2.35-.14,3.02-1.52,1.65-3.39,4.13-4.77,7.5-4.35,1.73,.21,3.17,1.01,4.29,2.34,.64,.77,1.08,.85,1.85,.04,3.82-4.01,9.47-3.16,11.82,1.85,.71,1.51,1.98,1.4,3.09,1.64,1.08,.23,1.19-.95,1.55-1.65,2.97-5.84,5.93-11.68,8.87-17.54,1.45-2.89,.74-4.37-2.55-4.54-3.95-.21-7.92-.1-11.88,.02-1.57,.05-3,.59-3.82,2.24-.6,1.2-3.35,1.83-4.68,1.33-.44-.16-.52-.48-.52-.85,0-2.14-.01-4.27,0-6.41,0-.43,.19-.76,.7-.9,1.81-.47,3.94,.33,4.9,1.93,.74,1.22,1.83,1.79,3.22,1.79,3.86,0,7.72,.02,11.57-.01,1.47-.01,2.87-.14,3.88-1.55,.65-.91,2.3-.79,3.22,.04,1.18,1.05,1.56,2.58,.54,3.43-3.12,2.6-4.04,6.49-5.91,9.8-2.29,4.07-4.25,8.34-6.4,12.49-.52,1-.6,1.74,.2,2.66,1.09,1.24,1.64,2.77,1.58,4.46-.03,.9,.24,1.56,1.03,2.11,3.38,2.38,3.65,7.75,.86,10.46-.64,.62-.7,1.25-.46,2.11,1.63,5.84-3.2,9.92-7.53,9.27-1-.15-1.11,.57-1.33,1.18-1.13,3.02-3.21,4.79-6.48,5.04-2.13,.16-3.88-.67-5.33-2.12-.76-.76-1.25-.75-2.04,.02-3.96,3.81-9.86,2.4-11.71-2.8-.35-.97-.76-1.25-1.8-1.19-4.52,.26-8.15-3.77-7.29-8.21,.31-1.63,.07-2.77-.98-4.1-2.13-2.72-1.73-6.55,.85-8.93,1.14-1.05,1.95-2.05,1.78-3.68-.05-.49,.05-1.04,.39-1.48,.16,.05,.21-.01,.18-.17,.1-.26,.19-.52,.29-.78,0,0,.01,0,.01,0,0-.45,.23-.73,.6-.94,0,0,.01,0,.01,0,.67-1.04,1-2.08,0-3.11-.02-.14,0-.31-.06-.43-3.32-6.5-6.65-12.99-9.96-19.49-.37-.72-.91-1.07-1.7-1.09-.22-.16-.43-.31-.65-.47-.19-.29-.4-.57-.58-.87-.75-1.22-.28-2.26,.65-3.04,.89-.75,2-.88,3.01-.12,.43,.32,1.08,.68,.86,1.33-.21,.6-.91,.27-1.37,.41-.38-.87-1.05-.86-1.63-.36-.53,.46-.35,1.1,.23,1.43,.81,.46,1.25,.01,1.45-.78,1.8,.05,1.94,.2,1.31,1.36Zm27.77,38.71h.01c0,4.74-.02,9.49,0,14.23,.02,2.72,2.48,5.06,5.3,5.13,2.7,.07,5.36-2.33,5.52-4.97,.14-2.41-.76-4.25-2.92-5.42-.53-.29-1.3-.66-.94-1.38,.44-.9,1.19-.31,1.75-.01,1.68,.9,2.86,2.26,3.41,4.09,.24,.79,.6,1.31,1.46,1.38,2.06,.18,3.86-.36,5.1-2.09,1.31-1.84,1.58-3.84,.46-5.88-1.38-2.53-3.05-3.16-6.65-2.62-.53,.08-1.27,.41-1.48-.36-.23-.82,.49-.99,1.12-1.18,2.36-.72,4.57-.4,6.5,1.12,.98,.77,1.56,.52,2.18-.33,1.45-1.97,1.41-4.79-.09-6.7-.96-1.22-1.61-1.26-2.55-.06-1.37,1.75-3.2,2.65-5.36,2.83-.85,.07-2.1,.23-2.15-.93-.05-1.09,1.17-.65,1.87-.78,.1-.02,.21,0,.31-.01,2.56-.12,4.62-1.91,5.12-4.46,.45-2.28-.94-4.94-3.11-5.95-1.47-.68-1.98-.41-2.41,1.16-.74,2.68-2.5,4.42-5.14,5.17-.74,.21-2,.73-2.24-.5-.22-1.14,1.04-.83,1.72-1.01,2.03-.53,3.45-1.76,4.01-3.78,.6-2.16,.24-4.2-1.59-5.67-1.66-1.34-3.52-2-5.66-1.02-2.56,1.17-3.51,3.29-3.53,5.93-.03,4.69,0,9.38,0,14.08Zm-1.57-.28s-.02,0-.02,0c0-5,0-10,0-15.01,0-2.47-1.3-4.13-3.93-4.97-1.83-.58-4.41,.29-5.59,1.89-2.63,3.58-.91,7.96,3.46,8.86,.64,.13,1.55,.13,1.38,1.09-.15,.87-.99,.56-1.57,.51-2.77-.26-5.14-2.41-5.89-5.3-.42-1.63-.89-1.84-2.42-1.1-2.27,1.1-3.61,3.74-3.08,6.09,.61,2.67,2.67,4.22,5.73,4.3,.64,.02,1.56-.19,1.58,.78,.01,.89-.88,.94-1.54,.94-2.44,.03-4.49-.88-5.96-2.85-.84-1.12-1.49-1-2.33-.01-1.56,1.83-1.81,4.21-.59,6.39,.79,1.4,1.26,1.52,2.56,.62,1.66-1.15,3.49-1.64,5.48-1.23,.84,.17,2.31,.09,2.02,1.35-.27,1.23-1.52,.34-2.28,.22-2.23-.35-4.05,.3-5.39,2.06-1.35,1.78-1.39,3.79-.47,5.77,.95,2.05,2.7,2.95,4.92,2.98,1.08,.02,1.82-.29,2.17-1.53,.59-2.05,2.02-3.48,4-4.31,.4-.17,.83-.26,1.09,.23,.24,.45,.06,.8-.33,1.07-.26,.17-.53,.33-.79,.5-2.83,1.8-3.56,5.04-1.77,7.85,1.16,1.83,3.85,2.87,5.88,2.24,2.07-.63,3.8-2.11,3.71-4.9-.15-4.84-.04-9.69-.04-14.54Zm30.59-39.84c-.08-.51-.34-.93-.97-.94-.51,0-.92,.19-.93,.8-.01,.58,.21,1.04,.84,1.11,.65,.08,.92-.35,1.07-.97Z"/>
  <path class="cls-1" d="M207.49,138.3c.33,3.74-.25,8.22-1.35,12.54-1.05,4.11-2.74,8.07-4.73,11.87-4.64,8.83-11.3,15.74-19.72,21.01-.22,.14-.44,.28-.67,.39-1.32,.62-2.79,.39-3.18-.64-.46-1.23-.11-2.37,1-3.16,2.25-1.6,4.55-3.11,6.69-4.86,8.63-7.06,14.16-16.06,16.56-26.86,2.6-11.65,1.04-22.87-4.5-33.48-.36-.69-.69-1.4-.97-2.13-.41-1.05-.2-1.96,.75-2.61,.93-.63,1.82-.29,2.58,.33,.39,.32,.68,.78,.93,1.23,4.33,7.98,6.57,16.5,6.62,26.36Z"/>
  <path class="cls-1" d="M193.47,136.53c.02,7.05-1.78,13.65-5.36,19.67-2.81,4.74-6.45,8.82-11.1,11.89-.91,.6-1.66,1.43-2.75,1.76-1.11,.33-2.09,.31-2.7-.83-.6-1.12-.4-2.11,.64-2.89,.79-.6,1.53-1.26,2.35-1.81,8.18-5.48,12.35-13.4,13.99-22.88,1.17-6.76-.06-13.13-2.91-19.27-.22-.47-.43-.95-.62-1.43-.86-2.09-.24-3.23,1.97-3.74,.8-.18,1.33,.18,1.67,.82,3.07,5.86,4.82,12.06,4.81,18.7Z"/>
  <path class="cls-1" d="M174.39,136.01c.07-2.87-.34-5.62-1.73-8.17-.32-.59-.62-1.19-.68-1.9-.09-1.18,.06-2.25,1.38-2.63,1.3-.36,2.32,.26,2.83,1.37,3.65,7.97,3.86,15.93-.66,23.62-1.76,2.99-4.01,5.7-7.11,7.54-1.45,.86-2.78,.96-3.54,.04-.84-1.01-.63-2.02,.72-3.41,.25-.26,.51-.53,.81-.73,5.65-3.74,7.74-9.26,7.98-15.73Z"/>
  <path class="cls-2" d="M126.55,214.32c-.5,1.58-1.41,2.89-2.73,3.88-.35,.26-.66-.04-.97-.24-.61-.39-1.27-.71-1.88-1.1-1.36-.88-2.45-.77-3.35,.7-.6,.97-1.38,.88-2.22,.17-.71-.6-1.52-1.08-2.27-1.64-1.16-.85-1.25-1.62-.34-2.73,.07-.08,.15-.15,.21-.23q1.99-2.42,4.67-.73c1.94,1.22,2.15,1.22,3.48-.69,.61-.88,1.14-1.06,2.01-.38,.93,.74,1.92,1.41,2.89,2.1,.31,.22,.59,.44,.49,.88Z"/>
  <path class="cls-2" d="M84.22,50.47c-1.64,.09-2.88-.52-3.76-1.86-.44-.67-1.02-1.15-1.75-1.5-.75-.37-.99-.86-.07-1.28,.89-.41,1.54-1.06,2.15-1.77,1.12-1.31,2.6-1.62,4.21-1.61,.64,0,1.29,.39,1.87-.28,.36-.42,.51,.08,.61,.32,.39,.92,.93,1.74,.53,2.92-.3,.88-.23,1.94,.07,2.92,.29,.93-.27,1.65-1.02,1.77-.96,.16-1.91,.55-2.86,.37Z"/>
  <path class="cls-2" d="M63.33,46.38c.47-.14,1.17,.19,1.37-.41,.23-.66-.43-1.01-.86-1.33-1.01-.77-2.11-.63-3.01,.12-.93,.78-1.4,1.83-.65,3.04,.18,.3,.39,.58,.58,.87-1.44-.94-1.67-2.14-.7-3.55,.88-1.28,2.99-1.77,4.05-.67,1.05,1.09,2.29,1.29,3.6,1.5,.55,.09,1.09,.09,1.04,.83-.05,.65-.53,.47-.99,.59-1.02,.25-2.02,.6-3.08,.68,.64-1.16,.5-1.31-1.3-1.36-.02-.1-.04-.2-.06-.29Z"/>
  <path class="cls-2" d="M95.75,40.9c-.56-.15-.56-.54-.24-.91,.72-.8,1.48-1.58,2.26-2.32,.22-.21,.58-.32,.7,.16,.08,.31-2.35,3.06-2.73,3.07Z"/>
  <path class="cls-2" d="M85.13,52.63c.02,.39-2.1,2.88-2.47,2.9-.18,.01-.45-.06-.53-.19-.08-.14-.05-.44,.06-.57,.71-.82,1.43-1.63,2.21-2.39,.3-.3,.68-.28,.73,.24Z"/>
  <path class="cls-2" d="M98.39,54.95c.12,.6-.36,.63-.53,.48-.86-.78-1.8-1.52-2.29-2.61-.16-.35,.17-.67,.5-.41,.94,.71,1.68,1.63,2.32,2.55Z"/>
  <path class="cls-2" d="M93.7,54.25c.38,.68,.67,1.42,.74,2.24,.02,.27-.21,.58-.47,.38-.63-.48-1.02-1.14-.9-1.99,.04-.31,.13-.61,.63-.63Z"/>
  <path class="cls-2" d="M86.35,55.8c.17-.65,.08-1.5,1-1.72,.32-.07,.49,.25,.28,.49-.53,.62,.17,1.85-.96,2.07-.52,.1-.37-.48-.32-.84Z"/>
  <path class="cls-2" d="M93.61,38.77c-.56-.03-.58-.37-.59-.67,0-.78,.34-1.41,1.01-1.79,.28-.16,.51,.18,.43,.44-.22,.71-.35,1.48-.85,2.02Z"/>
  <path class="cls-2" d="M87.5,38.94c-1.17-.52-1.2-1.3-1.02-2.14,.02-.08,.3-.2,.34-.17,.73,.57,.69,1.36,.68,2.3Z"/>
  <path class="cls-2" d="M83.46,39.01c.3,.06,.43,.04,.49,.1,.48,.49,1.21,.78,1.27,1.59,0,.09-.25,.29-.3,.26-.78-.34-1.27-.92-1.45-1.95Z"/>
  <path class="cls-2" d="M82.7,38.45c-.07-.24,.02-.35,.19-.36,.08,0,.24,.08,.25,.13,0,.13-.06,.26-.1,.39-.13-.06-.25-.12-.34-.16Z"/>
  <path class="cls-2" d="M72.23,74.96c.04,.16-.01,.22-.18,.17-.05-.06-.16-.16-.15-.18,.1-.17,.22-.12,.32,.01Z"/>
  <path class="cls-2" d="M73.14,73.25s-.01,0-.01,0,.01,0,.01,0Z"/>
  <path class="cls-2" d="M72.53,74.19s-.01,0-.01,0c0,0,.01,0,.01,0Z"/>
  <path class="cls-3" d="M121.48,46.63c-.15,.62-.42,1.05-1.07,.97-.63-.08-.85-.53-.84-1.11,.01-.6,.42-.8,.93-.8,.63,0,.89,.43,.97,.94Z"/>
  <path class="cls-3" d="M63.33,46.38c.02,.1,.04,.2,.06,.29-.2,.79-.64,1.24-1.45,.78-.58-.33-.76-.97-.23-1.43,.58-.5,1.25-.51,1.63,.36Z"/>
  <rect class="cls-2" x="67.72" y="45.94" width="12.42" height="1.19"/>
  <rect class="cls-2" x="82.68" y="44.43" width="9.82" height=".8"/>
  <rect class="cls-2" x="83.02" y="44.91" width="7.98" height="2.68" transform="translate(133.26 -40.76) rotate(90)"/>
  <rect class="cls-2" x="82.68" y="47.93" width="9.82" height=".8"/>
</svg>