<?xml version="1.0" encoding="UTF-8"?>
<svg id="Layer_1" data-name="Layer 1" xmlns="http://www.w3.org/2000/svg" xmlns:xlink="http://www.w3.org/1999/xlink" viewBox="0 0 273.24 186.35">
  <defs>
    <style>
      .cls-1 {
        fill: #fff;
      }

      .cls-2 {
        fill: #f8bf3f;
      }

      .cls-3 {
        clip-path: url(#clippath);
      }

      .cls-4 {
        clip-rule: evenodd;
        fill: none;
      }
    </style>
    <clipPath id="clippath">
      <path class="cls-4" d="M56.44,3.62H244.08c15,0,27.17,19.11,27.17,42.69v91.2c0,23.58-12.16,42.69-27.17,42.69H56.44V3.62Z"/>
    </clipPath>
  </defs>
  <g class="cls-3">
    <path class="cls-2" d="M77.59,3.62H250.09c5.61,0,10.99,3.5,14.96,9.74,3.97,6.23,6.2,14.69,6.2,23.5v110.1c0,8.82-2.23,17.27-6.2,23.5-3.97,6.23-9.35,9.74-14.96,9.74H77.59c-5.61,0-10.99-3.5-14.96-9.74s-6.2-14.69-6.2-23.5V36.85c0-8.82,2.23-17.27,6.2-23.5s9.35-9.74,14.96-9.74"/>
  </g>
  <path class="cls-2" d="M157.68,3.62H82.32c-27.85,0-50.31,22.63-50.31,50.5v87.29c0,17.86-11.69,33.72-28.92,38.8H157.68V3.62Z"/>
  <path class="cls-1" d="M189.92,65.86h31.18v24.02c0,12.17-2.89,21.41-8.66,27.72-5.77,6.32-14.36,9.47-25.76,9.47-10.63,0-18.63-3.39-24.02-10.16-5.24,6.01-13.01,9.01-23.33,9.01h-61.21c-1.54,0-2.31-.77-2.31-2.31v-30.03c0-1.54,.77-2.31,2.31-2.31h23.1v-25.41h31.18v25.41h9.93c3.39,0,5.08-2.31,5.08-6.93v-25.41h30.95v26.1c0,4.78,1.92,7.16,5.77,7.16s5.77-2.39,5.77-7.16v-19.17Z"/>
</svg>