<?xml version="1.0" encoding="UTF-8"?>
<svg id="Layer_1" data-name="Layer 1" xmlns="http://www.w3.org/2000/svg" xmlns:xlink="http://www.w3.org/1999/xlink" viewBox="0 0 441.32 188.05">
  <defs>
    <style>
      .cls-1 {
        fill: #fff;
      }

      .cls-2 {
        clip-path: url(#clippath-1);
      }

      .cls-3 {
        fill: #f8bf3f;
      }

      .cls-4 {
        clip-path: url(#clippath);
      }

      .cls-5 {
        clip-rule: evenodd;
      }

      .cls-5, .cls-6 {
        fill: none;
      }
    </style>
    <clipPath id="clippath">
      <rect class="cls-6" x="3" y="12.53" width="366.57" height="161.01"/>
    </clipPath>
    <clipPath id="clippath-1">
      <path class="cls-5" d="M142.9,12.53H399.54c20.52,0,37.16,17.43,37.16,38.92v83.16c0,21.5-16.64,38.92-37.16,38.92H142.9V12.53Z"/>
    </clipPath>
  </defs>
  <g>
    <g class="cls-4">
      <path class="cls-3" d="M622.16,12.53H75.48c-25.39,0-45.87,20.63-45.87,46.04v79.59c0,16.28-10.66,30.74-26.37,35.37H622.16c25.39,0,46.01-20.63,46.01-46.04V58.57c0-25.41-20.62-46.04-46.01-46.04Z"/>
    </g>
    <g class="cls-2">
      <path class="cls-3" d="M171.83,12.53h235.93c7.67,0,15.03,3.19,20.46,8.88,5.43,5.68,8.47,13.39,8.47,21.43v100.39c0,8.04-3.05,15.75-8.47,21.43-5.43,5.68-12.78,8.88-20.46,8.88H171.83c-7.67,0-15.03-3.19-20.46-8.88-5.43-5.68-8.47-13.39-8.47-21.43V42.84c0-8.04,3.05-15.75,8.47-21.43,5.43-5.68,12.78-8.88,20.46-8.88"/>
    </g>
  </g>
  <g>
    <path class="cls-1" d="M98.9,103.05c1.12,0,1.69,.56,1.69,1.69v21.91c0,1.12-.56,1.69-1.69,1.69h-14.16l-11.29,11.12-15.84-16.35,10.11-9.94V27.2h22.75V103.05h8.43Z"/>
    <path class="cls-1" d="M190.08,103.05c1.12,0,1.69,.56,1.69,1.69v21.91c0,1.12-.56,1.69-1.69,1.69H98.9c-1.12,0-1.69-.56-1.69-1.69v-21.91c0-1.12,.56-1.69,1.69-1.69h5.9v-.84c0-8.09,2.25-14.61,6.74-19.55,4.49-4.94,10.45-7.42,17.87-7.42s13.79,2.36,18.12,7.08c4.32,4.72,6.49,11.35,6.49,19.89v.84h6.57v-5.56c0-8.43-2.56-15.22-7.67-20.39-5.11-5.17-11.83-7.75-20.14-7.75-3.6,0-7.19,.56-10.79,1.69l-5.56-20.39c7.75-2.92,14.89-4.38,21.41-4.38,9.33,0,17.42,2.16,24.27,6.49,6.85,4.33,12.11,10.37,15.76,18.12,3.65,7.75,5.48,16.63,5.48,26.63v5.56h6.74Zm-65.9,0h10.45v-1.01c0-1.69-.48-3.06-1.43-4.13-.96-1.07-2.22-1.6-3.79-1.6s-2.84,.53-3.79,1.6c-.96,1.07-1.43,2.44-1.43,4.13v1.01Z"/>
    <path class="cls-1" d="M239.81,103.05c1.12,0,1.69,.56,1.69,1.69v21.91c0,1.12-.56,1.69-1.69,1.69h-49.72c-1.12,0-1.69-.56-1.69-1.69v-21.91c0-1.12,.56-1.69,1.69-1.69h13.48v-18.54h22.75v18.54h13.48Zm-35.73,38.09c2.58,0,4.83,.93,6.74,2.78,1.91,1.85,2.87,4.02,2.87,6.49s-.96,4.8-2.87,6.66c-1.91,1.85-4.16,2.78-6.74,2.78s-4.78-.93-6.57-2.78c-1.8-1.85-2.7-4.07-2.7-6.66s.93-4.64,2.78-6.49c1.85-1.85,4.02-2.78,6.49-2.78h0Zm21.57,0c2.58,0,4.8,.9,6.66,2.7,1.85,1.8,2.78,3.99,2.78,6.57s-.93,4.8-2.78,6.66c-1.85,1.85-4.07,2.78-6.66,2.78s-4.8-.93-6.66-2.78c-1.85-1.85-2.78-4.07-2.78-6.66s.93-4.64,2.78-6.49c1.85-1.85,4.07-2.78,6.66-2.78h0Z"/>
    <path class="cls-1" d="M283.46,45.92h10.11v7.25c0,3.71-.98,6.74-2.95,9.1-1.97,2.36-4.75,3.54-8.34,3.54-3.37,0-5.9-1.29-7.58-3.88-1.8,2.59-4.38,3.88-7.75,3.88-3.6,0-6.38-1.18-8.34-3.54-1.97-2.36-2.95-5.39-2.95-9.1v-7.25h10.11v5.73c0,2.14,.78,3.2,2.36,3.2s2.36-1.07,2.36-3.2v-5.73h8.26v5.73c0,2.14,.78,3.2,2.36,3.2s2.36-1.07,2.36-3.2v-5.73Zm5.39,36.24h-28.65v-10.96h28.65v10.96Z"/>
    <path class="cls-1" d="M308.91,103.05c1.12,0,1.69,.56,1.69,1.69v21.91c0,1.12-.56,1.69-1.69,1.69h-5.06v1.35c0,6.74-1.41,12.5-4.21,17.28-2.81,4.77-6.46,8.34-10.96,10.7-4.5,2.36-9.27,3.54-14.33,3.54-8.88,0-16.01-2.89-21.41-8.68-5.39-5.79-8.09-13.4-8.09-22.84v-1.35h-5.06c-1.12,0-1.69-.56-1.69-1.69v-21.91c0-1.12,.56-1.69,1.69-1.69h69.11Zm-27.81,25.28h-13.48v1.35c0,2.13,.62,3.85,1.85,5.14,1.24,1.29,2.92,1.94,5.06,1.94,1.91,0,3.48-.65,4.72-1.94,1.24-1.29,1.85-3.01,1.85-5.14v-1.35Z"/>
    <path class="cls-1" d="M390.49,84.51h22.75v17.53c0,8.88-2.11,15.62-6.32,20.23-4.21,4.61-10.48,6.91-18.79,6.91-7.75,0-13.6-2.47-17.53-7.42-3.82,4.38-9.5,6.57-17.02,6.57h-44.67c-1.12,0-1.69-.56-1.69-1.69v-21.91c0-1.12,.56-1.69,1.69-1.69h16.85v-18.54h22.75v18.54h7.25c2.47,0,3.71-1.69,3.71-5.06v-18.54h22.59v19.05c0,3.48,1.4,5.23,4.21,5.23s4.21-1.74,4.21-5.23v-13.99Z"/>
  </g>
</svg>